<?xml version="1.0" encoding="UTF-8" standalone="no"?>
<!-- Created with Inkscape (http://www.inkscape.org/) -->

<svg
   width="140mm"
   height="85mm"
   viewBox="0 0 140 85"
   version="1.1"
   id="svg1812"
   inkscape:version="1.1.2 (b8e25be8, 2022-02-05)"
   sodipodi:docname="makiot_logo.svg"
   xmlns:inkscape="http://www.inkscape.org/namespaces/inkscape"
   xmlns:sodipodi="http://sodipodi.sourceforge.net/DTD/sodipodi-0.dtd"
   xmlns="http://www.w3.org/2000/svg"
   xmlns:svg="http://www.w3.org/2000/svg">
  <sodipodi:namedview
     id="namedview1814"
     pagecolor="#ffffff"
     bordercolor="#666666"
     borderopacity="1.0"
     inkscape:pageshadow="2"
     inkscape:pageopacity="0.0"
     inkscape:pagecheckerboard="0"
     inkscape:document-units="mm"
     showgrid="false"
     inkscape:zoom="0.61647026"
     inkscape:cx="397.42388"
     inkscape:cy="560.44877"
     inkscape:window-width="1409"
     inkscape:window-height="1027"
     inkscape:window-x="0"
     inkscape:window-y="25"
     inkscape:window-maximized="0"
     inkscape:current-layer="layer1" />
  <defs
     id="defs1809">
    <inkscape:path-effect
       effect="bspline"
       id="path-effect1699"
       is_visible="true"
       lpeversion="1"
       weight="33.333333"
       steps="2"
       helper_size="0"
       apply_no_weight="true"
       apply_with_weight="true"
       only_selected="false" />
    <inkscape:path-effect
       effect="bspline"
       id="path-effect1703"
       is_visible="true"
       lpeversion="1"
       weight="33.333333"
       steps="2"
       helper_size="0"
       apply_no_weight="true"
       apply_with_weight="true"
       only_selected="false" />
  </defs>
  <g
     inkscape:label="圖層 1"
     inkscape:groupmode="layer"
     id="layer1">
    <g
       id="g1695"
       inkscape:export-filename="/Users/aaron/Documents/禾晟開辦/Logo_和平鴿_完整.png"
       inkscape:export-xdpi="400"
       inkscape:export-ydpi="400"
       transform="translate(-43.192982,-6.1356588)">
      <path
         style="fill:#3cc5ff;fill-opacity:1;stroke:none;stroke-width:0.264583px;stroke-linecap:butt;stroke-linejoin:miter;stroke-opacity:1"
         d="m 120.58575,26.915767 c 0.11893,-0.0395 0.57503,0.65268 0.72396,0.841001 0.14892,0.18832 -0.009,-0.127345 -0.23661,-0.473566 -0.22769,-0.346221 -0.52596,-0.722742 -0.7241,-1.156711 -0.19814,-0.433968 -0.29444,-0.925501 -0.6183,-1.723612 -0.32386,-0.798112 -0.87626,-1.902917 -1.46848,-3.599606 -0.59222,-1.696688 -1.22355,-3.98522 -1.53964,-5.563762 -0.31609,-1.578541 -0.31609,-2.446604 -0.35424,-2.881959 -0.0382,-0.435355 -0.11703,-0.435355 -0.15781,-0.591861 -0.0408,-0.156506 -0.0408,-0.472165 2e-5,-0.631319 0.0408,-0.159153 0.11967,-0.159153 0.1578,-0.276202 0.0381,-0.117049 0.0381,-0.353793 1.026,-0.394459 0.98785,-0.04067 2.96072,0.117162 4.06543,0.195963 1.10471,0.0788 1.34146,0.0788 1.73631,0.197858 0.39485,0.119057 0.94725,0.355801 1.81524,0.592167 0.868,0.236367 2.05172,0.473112 3.51169,1.065528 1.45997,0.592416 3.1961,1.53939 4.41927,2.210179 1.22318,0.670789 1.93342,1.065366 2.40645,1.421091 0.47303,0.355726 0.70977,0.671383 0.94693,0.907665 0.23716,0.236282 0.4739,0.394109 0.94674,1.104896 0.47285,0.710786 1.18309,1.973428 1.97255,3.117544 0.78947,1.144116 1.65753,2.170008 2.24952,2.840685 0.59198,0.670677 0.90764,0.986337 1.10413,1.262808 0.1965,0.276471 0.27541,0.513207 0.70987,1.262856 0.43447,0.749649 1.22362,2.012286 1.77622,2.840798 0.5526,0.828512 0.86826,1.223083 1.02493,1.499156 0.15667,0.276074 0.15667,0.433903 0.31552,0.749765 0.15884,0.315862 0.4745,0.789351 0.67157,1.105081 0.19707,0.31573 0.27597,0.473542 0.31464,0.59165 0.0387,0.118107 0.0387,0.197022 0.0387,0.197023 0,10e-7 0,-0.07892 0.1197,-10e-7 0.11969,0.07891 0.35644,0.315656 0.82976,0.393122 0.47333,0.07746 1.18357,-0.0014 2.2087,-0.43559 1.02514,-0.434139 2.36669,-1.223292 3.03706,-1.655763 0.67037,-0.43247 0.67037,-0.511384 0.70957,-0.630557 0.0392,-0.119173 0.1181,-0.276988 0.35494,-0.632384 0.23683,-0.355395 0.6314,-0.907796 1.26284,-1.657679 0.63144,-0.749883 1.49951,-1.69686 2.28871,-2.525526 0.7892,-0.828667 1.49943,-1.538898 2.25014,-1.973133 0.75071,-0.434236 1.53986,-0.592066 2.21026,-0.789423 0.67039,-0.197356 1.2228,-0.434104 2.40721,-0.552201 1.1844,-0.118098 2.99944,-0.118098 3.94643,-0.07731 0.94699,0.04079 1.02588,0.119684 1.42058,0.197438 0.39471,0.07775 1.10495,0.156669 1.73638,0.354689 0.63143,0.198021 1.18384,0.513681 1.6968,0.789781 0.51297,0.276099 0.98646,0.512845 1.49856,1.223878 0.5121,0.711033 1.0645,1.894758 1.33996,2.565263 0.27546,0.670505 0.27546,0.828334 -0.39491,1.300261 -0.67037,0.471927 -2.01192,1.261075 -2.91985,1.892635 -0.90792,0.631559 -1.38141,1.105042 -1.61815,1.422026 -0.23675,0.316983 -0.23675,0.474813 -0.27647,0.671576 -0.0397,0.196763 -0.11864,0.433497 -0.23674,0.629992 -0.11811,0.196495 -0.27594,0.354325 -0.4735,0.710079 -0.19756,0.355753 -0.43431,0.908159 -0.86833,1.776063 -0.43401,0.867903 -1.06533,2.051629 -1.42035,2.920324 -0.35501,0.868694 -0.43393,1.421095 -0.59185,2.131111 -0.15791,0.710016 -0.39466,1.578082 -0.51278,2.288743 -0.11813,0.710662 -0.11813,1.263065 -0.15762,2.920239 -0.0395,1.657173 -0.11841,4.41919 -0.19738,6.352543 -0.079,1.933354 -0.15788,3.038162 -0.23698,3.668794 -0.0791,0.630632 -0.158,0.78844 -0.23692,0.986 -0.0789,0.19756 -0.15782,0.434291 -0.31558,1.223704 -0.15775,0.789413 -0.39449,2.130962 -0.63132,3.077525 -0.23683,0.946562 -0.47357,1.498965 -0.59167,1.933683 -0.1181,0.434717 -0.1181,0.750367 -0.70996,1.498739 -0.59187,0.748373 -1.77559,1.932098 -3.23413,2.484562 -1.45855,0.552465 -3.19468,0.473548 -3.9853,-0.511746 -0.79063,-0.985295 -0.6328,-2.879255 -0.59319,-4.851958 0.0396,-1.972703 -0.0393,-4.024482 -0.15694,-5.20799 -0.11763,-1.183508 -0.27546,-1.499168 -0.47307,-2.051584 -0.19761,-0.552416 -0.43435,-1.341556 -1.69643,-3.432855 -1.26209,-2.091299 -3.55062,-5.484641 -5.32586,-7.773414 -1.77525,-2.288773 -3.03789,-3.472496 -3.78801,-4.261367 -0.75012,-0.78887 -0.98687,-1.183445 -1.81497,-1.972957 -0.82811,-0.789511 -2.24858,-1.973235 -3.51111,-2.684331 -1.26253,-0.711097 -2.36734,-0.947842 -3.66941,-1.26342 -1.30207,-0.315577 -2.80145,-0.71015 -3.74867,-0.907849 -0.94721,-0.197698 -1.34179,-0.197698 -1.61773,-0.236361 -0.27593,-0.03866 -0.43376,-0.117577 -0.63105,-0.196758 -0.19729,-0.07918 -0.43403,-0.158095 -1.49944,-0.39505 -1.0654,-0.236954 -2.95936,-0.631529 -4.26146,-1.064862 -1.3021,-0.433333 -2.01233,-0.906821 -2.40764,-1.221916 -0.39531,-0.315095 -0.47422,-0.472912 -0.55263,-0.553415 -0.0784,-0.0805 -0.15728,-0.0805 -0.23713,-0.236781 -0.0799,-0.156277 -0.15876,-0.471928 -0.30784,-1.015292 -0.14908,-0.543363 -0.36844,-1.314457 -0.2495,-1.353956 z"
         id="path1669"
         inkscape:original-d="m 120.24656,26.181024 c 0.45875,0.694828 0.91485,1.38701 1.36831,2.076546 -0.15518,-0.313013 -0.31302,-0.628674 -0.47349,-0.946978 -0.29563,-0.373878 -0.5939,-0.750401 -0.89482,-1.129568 -0.0937,-0.488894 -0.18996,-0.980434 -0.2889,-1.474623 -0.54976,-1.102162 -1.10216,-2.206969 -1.65721,-3.314422 -0.62868,-2.285884 -1.26,-4.574416 -1.89396,-6.865591 0.003,-0.865418 0.003,-1.733481 0,-2.604191 -0.0763,0.0026 -0.15518,0.0026 -0.23674,0 0.003,-0.313012 0.003,-0.628671 0,-0.946978 0.0816,0.0026 0.16047,0.0026 0.23674,0 0.003,-0.234098 0.003,-0.470842 0,-0.710231 1.97552,0.160475 3.94839,0.318304 5.91861,0.473487 0.23939,0.0026 0.47614,0.0026 0.71024,0 0.55505,0.23939 1.10745,0.476137 1.65721,0.710235 1.18637,0.239389 2.37009,0.476133 3.55116,0.710234 1.73878,0.949624 3.4749,1.896602 5.20839,2.840934 0.71287,0.397219 1.42311,0.791792 2.1307,1.183722 0.23939,0.318305 0.47613,0.633963 0.71023,0.946979 0.23939,0.160475 0.47613,0.318304 0.71023,0.473487 0.71288,1.265283 1.42312,2.527922 2.1307,3.787913 0.87071,1.028538 1.73877,2.054431 2.60419,3.077678 0.31831,0.318304 0.63397,0.633966 0.94698,0.946978 0.0816,0.23939 0.16048,0.476136 0.23674,0.710235 0.7918,1.265282 1.58095,2.527919 2.36745,3.787912 0.31831,0.397219 0.63396,0.791795 0.94698,1.183722 0.003,0.160475 0.003,0.318304 0,0.473488 0.3183,0.476136 0.63396,0.949624 0.94698,1.420468 0.0816,0.160475 0.16047,0.318305 0.23674,0.473488 0.003,0.08156 0.003,0.160475 0,0.236747 0.003,-0.07627 0.003,-0.155186 0,-0.236747 0.23939,0.239392 0.47613,0.476136 0.71024,0.710234 0.71287,-0.07627 1.42311,-0.155183 2.1307,-0.236744 1.34419,-0.786503 2.68575,-1.575651 4.02465,-2.367446 0.003,-0.07627 0.003,-0.155184 0,-0.236744 0.0816,-0.155184 0.16048,-0.313013 0.23675,-0.473488 0.39722,-0.549759 0.79179,-1.102161 1.18372,-1.657212 0.87071,-0.944333 1.73877,-1.891311 2.60419,-2.840935 0.71288,-0.707588 1.42311,-1.41782 2.1307,-2.1307 0.79179,-0.155183 1.58094,-0.313012 2.36745,-0.47349 0.55504,-0.234098 1.10745,-0.470842 1.6572,-0.710232 1.81769,0.0026 3.63273,0.0026 5.44513,0 0.0816,0.08156 0.16047,0.160475 0.23674,0.236744 0.71288,0.08156 1.42312,0.160475 2.1307,0.236744 0.55505,0.318307 1.10746,0.633965 1.65722,0.946978 0.47613,0.23939 0.94962,0.476136 1.42046,0.710234 0.55505,1.186368 1.10746,2.37009 1.65721,3.551169 0.003,0.160475 0.003,0.318304 0,0.473488 -1.3389,0.791794 -2.68045,1.580943 -4.02465,2.367444 -0.47085,0.476136 -0.94433,0.949624 -1.42047,1.420468 0.003,0.160475 0.003,0.318305 0,0.473488 -0.0763,0.239392 -0.15518,0.476136 -0.23674,0.710234 -0.15519,0.160475 -0.31302,0.318305 -0.47349,0.473491 -0.2341,0.555048 -0.47085,1.107453 -0.71024,1.657209 -0.62867,1.186368 -1.25999,2.370093 -1.89395,3.551169 -0.0763,0.555048 -0.15519,1.107453 -0.23675,1.65721 -0.23409,0.870709 -0.47084,1.738773 -0.71023,2.60419 0.003,0.555051 0.003,1.107454 0,1.657213 -0.0763,2.764665 -0.15518,5.526683 -0.23674,8.286061 -0.0763,1.10745 -0.15519,2.21226 -0.23675,3.31442 -0.0763,0.16048 -0.15518,0.3183 -0.23675,0.47349 -0.0763,0.23939 -0.15518,0.47613 -0.23674,0.71023 -0.2341,1.3442 -0.47084,2.68575 -0.71023,4.02466 -0.2341,0.55505 -0.47085,1.10745 -0.71023,1.65721 0.003,0.31831 0.003,0.63396 0,0.94698 -1.18108,1.18637 -2.36481,2.37009 -3.55117,3.55117 -1.73348,-0.0763 -3.46961,-0.15519 -5.20838,-0.23675 0.16047,-1.89131 0.3183,-3.78527 0.47349,-5.68187 -0.0763,-2.04914 -0.15519,-4.10092 -0.23675,-6.15535 -0.15518,-0.31302 -0.31301,-0.62868 -0.47349,-0.94698 -0.2341,-0.78651 -0.47084,-1.57565 -0.71023,-2.367446 -2.28588,-3.390694 -4.57442,-6.78403 -6.86559,-10.180016 -1.25999,-1.181076 -2.52263,-2.364798 -3.78791,-3.551166 -0.2341,-0.39193 -0.47085,-0.786503 -0.71024,-1.183724 -1.41782,-1.181077 -2.83829,-2.364799 -4.2614,-3.551166 -1.10216,-0.234098 -2.20697,-0.470845 -3.31442,-0.710235 -1.49674,-0.391927 -2.99612,-0.786503 -4.49815,-1.183722 -0.39192,0.0026 -0.7865,0.0026 -1.18372,0 -0.15518,-0.07627 -0.31301,-0.155183 -0.47349,-0.236744 -0.2341,-0.07627 -0.47084,-0.155186 -0.71023,-0.236746 -1.89131,-0.391927 -3.78527,-0.7865 -5.68187,-1.183722 -0.70759,-0.470842 -1.41782,-0.944332 -2.1307,-1.420466 -0.0763,-0.155183 -0.15518,-0.313015 -0.23675,-0.47349 -0.0763,0.0026 -0.15518,0.0026 -0.23674,0 -0.0763,-0.313013 -0.15518,-0.628672 -0.23674,-0.946978 -0.21672,-0.768451 -0.43607,-1.539547 -0.65808,-2.31329 z"
         inkscape:path-effect="#path-effect1699"
         inkscape:export-filename="/Users/aaron/Documents/禾晟開辦/定稿_和平鴿_全.png"
         inkscape:export-xdpi="600"
         inkscape:export-ydpi="600" />
      <path
         style="fill:#44ca27;fill-opacity:1;stroke:none;stroke-width:0.27376px;stroke-linecap:butt;stroke-linejoin:miter;stroke-opacity:1"
         d="m 108.60796,32.977246 c 0.55183,-0.237801 2.03622,-0.28247 4.37868,-0.423012 2.34246,-0.140542 5.54313,-0.376856 7.25306,-0.554236 1.70992,-0.177381 1.93066,-0.295539 2.64894,-0.354382 0.71827,-0.05884 1.93232,-0.05884 3.3671,-0.05884 1.43478,0 3.0903,0 4.63574,0.236846 1.54544,0.236846 2.98022,0.709473 5.02204,1.655066 2.04181,0.945592 4.69064,2.363478 6.52004,3.589244 1.82941,1.225766 2.83006,2.248299 4.50585,4.27896 1.67579,2.030661 3.97002,5.001045 4.12671,6.847477 0.15669,1.846432 -1.84517,2.5453 -2.84415,2.894053 -0.99898,0.348753 -0.99898,0.348753 -0.99898,0.348753 0,0 0,0 -0.49503,0.11777 -0.49502,0.117769 -1.4914,0.354813 -3.0917,0.472992 -1.60029,0.118179 -3.80527,0.118179 -5.57115,0.118179 -1.76589,0 -3.09031,0 -5.18707,-0.295073 -2.09676,-0.295072 -4.96633,-0.885858 -6.95292,-1.535027 -1.98659,-0.64917 -3.09027,-1.358113 -3.80792,-1.889417 -0.71765,-0.531305 -1.04875,-0.885776 -2.42832,-2.303693 -1.37956,-1.417918 -3.80766,-3.899218 -5.13181,-5.199466 -1.32415,-1.300247 -1.54489,-1.418406 -1.93161,-1.831297 -0.38672,-0.412892 -0.93856,-1.121834 -1.49,-1.654049 -0.55144,-0.532216 -1.10328,-0.886689 -1.49063,-1.417744 -0.38735,-0.531054 -0.60809,-1.24 -0.90804,-1.808671 -0.29995,-0.56867 -0.68066,-0.99663 -0.12883,-1.23443 z"
         id="path1671"
         inkscape:path-effect="#path-effect1703"
         inkscape:original-d="m 107.67285,32.784191 c 1.48703,-0.04184 2.97142,-0.08651 4.45315,-0.134006 3.20332,-0.23348 6.40399,-0.469793 9.60201,-0.708942 0.22338,-0.115324 0.44412,-0.233482 0.66221,-0.35447 1.21669,0.0028 2.43074,0.0028 3.64214,0 1.65816,0.0028 3.31368,0.0028 4.96655,0 1.43743,0.475461 2.87221,0.948087 4.30435,1.417885 2.65148,1.420719 5.30031,2.838605 7.94649,4.253657 1.01322,1.035378 2.01387,2.057909 3.03289,3.099226 2.3326,3.019979 4.62683,5.990365 6.93985,8.98515 -1.99957,0.698426 -4.00143,1.397292 -5.9995,2.094481 2.6e-4,2.66e-4 0,0 0,0 0,0 2.6e-4,2.66e-4 0,0 -0.98998,0.23585 -1.98636,0.472894 -2.97993,0.708941 -2.20709,2.68e-4 -4.41207,0.0028 -6.62207,0 -1.32177,0.0028 -2.64619,0.0028 -3.97325,0 -2.86691,-0.587951 -5.73648,-1.178735 -8.60869,-1.772353 -1.10104,-0.706114 -2.20472,-1.415056 -3.31104,-2.126831 -0.32846,-0.351636 -0.65956,-0.70611 -0.99331,-1.063411 -2.42545,-2.478469 -4.85354,-4.959771 -7.28428,-7.443904 -0.21809,-0.115324 -0.43883,-0.233483 -0.66221,-0.354469 -0.54919,-0.706114 -1.10103,-1.415055 -1.65552,-2.12683 -0.54919,-0.351637 -1.10103,-0.70611 -1.65551,-1.063413 -0.21809,-0.70611 -0.43883,-1.415055 -0.66221,-2.126831 -0.37806,-0.425129 -0.75877,-0.853086 -1.14212,-1.28388 z"
         sodipodi:nodetypes="cccccccccscscsccccccccccc"
         inkscape:export-filename="/Users/aaron/Documents/禾晟開辦/定稿_和平鴿_全.png"
         inkscape:export-xdpi="600"
         inkscape:export-ydpi="600" />
      <path
         id="path1673"
         style="fill:none;fill-rule:evenodd;stroke:#000000;stroke-width:3.794;stroke-linecap:round"
         d="M 143.1898,53.067911 A 33.650665,33.650665 0 0 1 107.67285,34.029666 m 1e-5,-5e-6 a 35,35 0 0 1 42.15261,10.411067 35,35 0 0 1 -0.41379,43.417302"
         inkscape:export-filename="/Users/aaron/Documents/禾晟開辦/定稿_和平鴿_全.png"
         inkscape:export-xdpi="600"
         inkscape:export-ydpi="600" />
      <g
         id="g1677"
         transform="rotate(-2.5156112,-853.95879,-4.7760616)"
         inkscape:export-filename="/Users/aaron/Documents/禾晟開辦/定稿_和平鴿_全.png"
         inkscape:export-xdpi="600"
         inkscape:export-ydpi="600">
        <path
           id="path1675"
           style="fill:none;stroke:#000000;stroke-width:4;stroke-linecap:round;stroke-linejoin:miter;stroke-miterlimit:4;stroke-dasharray:none;stroke-opacity:1"
           d="m 163.69907,87.308357 c -0.10784,-8.84031 12.29379,-13.37083 12.29379,-13.37083 0,0 -10.02636,-14.172932 -19.42595,-3.05878 -6.6462,7.858523 -11.58863,7.946488 -11.58863,7.946488 m 18.72079,8.483124 a 29.8361,29.830025 19.168737 0 1 -5.66022,25.288611 M 117.94897,68.910622 a 33.650665,33.650665 0 0 1 -4.91775,-17.335857 m -1e-5,-2e-6 a 35,35 0 0 1 31.94707,27.250476" />
      </g>
      <path
         d="m 68.002137,88.119088 c 0,0.952629 -0.779423,1.818655 -1.688751,1.732052 -0.909327,-0.0866 -1.732052,-0.779423 -1.732052,-1.732052 v -15.67507 c 0,-0.303109 -0.259808,-0.606218 -0.562917,-0.606218 h -5.412662 c -0.346411,0 -0.561273,0.303113 -0.562917,0.606218 l -0.07469,13.767715 c -0.0049,0.909315 -0.779423,1.464678 -1.688751,1.464678 -0.952628,0 -1.693656,-0.480672 -1.68875,-1.389987 l 0.07469,-13.842406 C 54.666937,72.140913 54.405529,71.8378 54.10242,71.8378 h -5.239458 c -0.34641,0 -0.606218,0.303109 -0.606218,0.606218 v 15.67507 c 0,0.952629 -0.779423,1.732052 -1.732052,1.732052 -0.866026,0 -1.645449,-0.779423 -1.645449,-1.732052 V 71.404786 c 0,-1.645449 1.299039,-2.944488 2.901187,-2.944488 h 16.32459 c 2.165065,0 3.897117,1.732052 3.897117,3.897117 z"
         style="font-size:43.3013px;line-height:1.25;font-family:Mamelon;-inkscape-font-specification:'Mamelon, Normal';stroke:#000000;stroke-width:0.432"
         id="path1679"
         sodipodi:nodetypes="ssssssssssssssssssssss" />
      <path
         d="m 87.549967,85.910722 c 0,3.837364 0.220065,4.413968 -4.246563,3.58352 l -7.401487,0.356898 c -1.643539,0.07925 -2.987789,-1.34234 -2.987789,-2.987789 v -8.054042 c 0,-1.602148 1.34234,-2.944489 2.987789,-2.944489 h 7.447824 c 0.303109,0 0.562917,-0.259807 0.562917,-0.606218 v -2.901187 c 0,-0.34641 -0.259808,-0.606218 -0.562917,-0.606218 H 74.99259 c -0.909327,0 -1.688751,-0.736122 -1.688751,-1.64545 0,-0.866026 0.779424,-1.645449 1.688751,-1.645449 h 9.612889 c 1.602148,0 2.944488,1.299039 2.944488,2.944488 z M 76.421533,79.805239 v 6.192086 c 0,0.34641 0.216506,0.606218 0.562917,0.606218 h 6.365291 c 0.303109,0 0.562917,-0.259808 0.562917,-0.606218 v -6.192086 c 0,-0.346411 -0.259808,-0.606218 -0.562917,-0.606218 H 76.98445 c -0.346411,0 -0.562917,0.259807 -0.562917,0.606218 z"
         style="font-size:43.3013px;line-height:1.25;font-family:Mamelon;-inkscape-font-specification:'Mamelon, Normal';stroke:#000000;stroke-width:0.432"
         id="path1681"
         sodipodi:nodetypes="scsssssssssssssssssssssss" />
      <path
         d="m 102.93139,77.943283 4.46003,10.0026 c 0.38971,0.909327 -0.25981,1.905257 -1.21243,1.905257 -1.16914,0 -2.29497,-0.736122 -2.77129,-1.818654 l -3.637307,-8.227247 c -0.1732,-0.389712 -0.978336,-0.929901 -1.324743,-0.929901 h -1.790367 c -0.34641,0 -0.652091,0.626792 -0.652091,0.929901 v 8.227247 c 0,0.99593 -0.822724,1.818654 -1.818654,1.818654 -0.99593,0 -1.820451,-1.420254 -1.818655,-2.416182 l 0.04587,-25.438437 c 0.0019,-1.039229 0.495143,-2.015089 1.939219,-2.015089 1.369385,0 1.732719,0.92471 1.726908,1.963925 l -0.07469,13.356547 c -0.0017,0.303105 0.259896,0.463344 0.606218,0.47117 l 2.030012,0.04587 c 0.346319,0.0078 0.827863,-0.127332 1.00107,-0.473742 l 3.58928,-6.666662 c 0.69282,-0.99593 1.47618,-1.883889 2.89669,-1.239538 1.49322,0.677329 0.57214,2.839948 0.57214,2.839948 l -3.68061,6.538496 c -0.21651,0.389712 -0.25981,0.779423 -0.0866,1.125834 z"
         style="font-size:43.3013px;line-height:1.25;font-family:Mamelon;-inkscape-font-specification:'Mamelon, Normal';stroke:#000000;stroke-width:0.432"
         id="path1683"
         sodipodi:nodetypes="ccsccssssssssssssccscccc" />
      <g
         id="g1693"
         transform="translate(0,-6.879167)">
        <ellipse
           style="fill:#fcc703;fill-opacity:1;stroke:#000000;stroke-width:2.85855;stroke-linecap:round;stroke-miterlimit:4;stroke-dasharray:none;stroke-opacity:1"
           id="ellipse1685"
           transform="matrix(-0.66793347,0.74422099,0.75173449,0.65946589,0,0)"
           cy="126.16264"
           cx="-25.63686"
           rx="4.5529613"
           ry="4.4773879" />
        <path
           d="m 113.89136,94.868355 c 0,1.039232 -0.82273,1.861956 -1.86196,1.861956 -0.99593,0 -1.81865,-0.822724 -1.81865,-1.861956 V 69.277287 c 0,-1.039231 0.82272,-1.861956 1.81865,-1.861956 1.03923,0 1.86196,0.822725 1.86196,1.861956 z"
           style="font-size:43.3013px;line-height:1.25;font-family:Mamelon;-inkscape-font-specification:'Mamelon, Normal';stroke:#000000;stroke-width:0.432"
           id="path1687" />
        <path
           id="path1689"
           style="font-size:43.3013px;line-height:1.25;font-family:Mamelon;-inkscape-font-specification:'Mamelon, Normal';stroke:#000000;stroke-width:0.432"
           d="m 138.83214,78.976778 c 0,-0.173205 -0.12992,-0.348983 -0.34641,-0.34641 l -3.55786,0.04228 c -2.50097,0.02972 -2.53476,-3.332771 -0.17992,-3.332929 l 3.73778,-2.5e-4 c 0.21651,-1.4e-5 0.34641,-0.129904 0.34641,-0.34641 v -5.152855 c 0,-0.99593 0.82273,-1.818655 1.77535,-1.818655 0.99593,0 1.81866,0.822725 1.81866,1.818655 v 4.893047 c 0,0.34641 0.25981,0.606218 0.60622,0.606218 h 2.25166 c 0.86603,0 1.64545,0.779423 1.64545,1.645449 0,0.909328 -0.77942,1.64545 -1.64545,1.64545 h -2.25166 c -0.34641,0 -0.60622,0.259808 -0.60622,0.606218 v 13.63991 c 0,0.34641 0.25982,0.603168 0.60622,0.606218 l 3.39264,0.02988 c 0.82268,0.0072 1.64847,0.706246 1.64847,1.572272 0,0.909327 -0.766,1.645449 -1.58872,1.645449 h -3.7555 c -2.16507,0 -3.89712,-1.775353 -3.89712,-3.940418 z"
           sodipodi:nodetypes="ssssssssssssssssssssssss" />
        <ellipse
           style="fill:none;fill-opacity:1;fill-rule:evenodd;stroke:#000000;stroke-width:3.507;stroke-linecap:round;stroke-miterlimit:4;stroke-dasharray:none;stroke-opacity:1"
           id="ellipse1691"
           cx="125.97206"
           cy="87.702484"
           rx="7.596549"
           ry="7.5965486" />
      </g>
    </g>
  </g>
</svg>
